<?xml version="1.0" encoding="UTF-8"?>
<svg version="1.1" viewBox="0 0 723.02 175.14" xmlns="http://www.w3.org/2000/svg">
 <g fill="#054164">
  <path d="m42.27 38.82h-42.27v-38.58h130.94v38.58h-42.32l0.02 113.06h-46.34l-0.03-113.06z"/>
  <path d="m169.5 102.33c-5.09 2.51-10.82 3.96-16.52 5.2-9.33 2.07-14.21 4.36-14.24 11.76-0.03 5.09 5.44 10.19 13.05 10.24 9.52 0.05 16.95-5.61 17.66-17.04l0.05-10.16zm40.06 25c-0.06 8.25 0.31 17.56 4.92 24.57l-42.73-0.25c-1.04-2.97-1.65-7.42-1.41-10.37h-0.43c-8.94 10.1-21.86 12.98-35.41 12.91-21.15-0.13-38.65-10.38-38.52-33.44 0.21-34.7 40.83-33.19 62.21-37.08 5.72-1.03 11.44-2.69 11.47-9.67 0.05-7.41-6.91-10.21-13.68-10.24-12.9-0.06-15.49 6.47-15.72 11.12l-38.93-0.22c1.44-30.88 30.66-35.79 56.69-35.64 52.46 0.31 51.92 22.1 51.78 43.25l-0.24 45.06z"/>
  <path d="m274.13 70.16c-15.02-0.09-18.48 14.07-18.56 26.96-0.08 13.11 3.23 27.32 18.24 27.41 15.03 0.08 18.49-14.07 18.57-27.2 0.08-12.89-3.23-27.1-18.25-27.17m-58.4-70.16h41.88l-0.3 54.41h0.42c6.4-9.27 17.64-14.71 30.13-14.64 36.8 0.22 46.56 31.58 46.41 57.4-0.16 27.5-15.36 58.08-46.45 57.91-20.52-0.13-26.82-7.99-32.07-15.01h-0.42l-0.08 11.81h-39.52v-151.88z"/>
  <path d="m393.05 30.73c-15.87-0.1-18.08 15.34-18.15 26.97-0.06 11.63 1.96 27.31 17.82 27.4s18.08-15.55 18.15-27.2c0.07-11.63-1.96-27.08-17.82-27.17m-0.5 84.83c-41.26-0.24-59.72-27.64-59.53-58.1 0.18-30.47 18.94-57.43 60.2-57.18 41.26 0.23 59.72 27.41 59.54 57.88-0.19 30.45-18.95 57.64-60.21 57.4"/>
  <path d="m497 30.72c-15.86-0.1-18.07 15.34-18.13 26.98-0.08 11.63 1.95 27.3 17.82 27.39 15.85 0.1 18.07-15.55 18.14-27.19 0.06-11.63-1.97-27.09-17.83-27.18m-0.5 84.84c-41.25-0.25-59.71-27.65-59.52-58.11 0.17-30.46 18.94-57.43 60.19-57.19s59.71 27.42 59.54 57.88c-0.18 30.48-18.95 57.65-60.21 57.42"/>
  <path d="m561.23 0.27h41v151.61h-41v-151.61z"/>
  <path d="m678.57 101.97c-5.09 2.5-10.82 3.95-16.52 5.18-9.34 2.07-14.2 4.37-14.25 11.77-0.03 5.08 5.44 10.18 13.05 10.23 9.53 0.05 16.96-5.61 17.66-17.04l0.06-10.14zm40.32 24.97c-0.04 8.25-0.5 17.93 4.12 24.94h-42.1c-1.03-2.97-1.74-8.03-1.5-10.98l-0.43-0.01c-8.94 10.1-21.85 12.99-35.4 12.91-21.16-0.14-38.66-10.39-38.52-33.45 0.21-34.7 40.81-33.18 62.2-37.07 5.72-1.03 11.44-2.69 11.48-9.67 0.05-7.41-6.91-10.2-13.69-10.24-12.91-0.07-15.48 6.47-15.71 11.12l-38.95-0.21c1.45-30.88 30.68-35.8 56.7-35.63 52.46 0.29 51.92 22.09 51.79 43.24v45.05z"/>
  <path d="m348.73 115.57c29.74 13.29 60.6 19.19 94.23 19.38 35.33 0.21 62.12-6.46 96.03-19.38l-0.2 36.6c-30.35 15.05-63.27 23.17-96.07 22.98-35.75-0.21-61.51-7.55-94.21-22.98l0.22-36.6z"/>
 </g>
</svg>
